<svg xmlns="http://www.w3.org/2000/svg" width="80" height="80" viewBox="0 0 80 80">
  <defs>
    <pattern id="african-geo" width="80" height="80" patternUnits="userSpaceOnUse">
      <!-- Diamond motif -->
      <path d="M40 4 L56 20 L40 36 L24 20 Z" fill="none" stroke="currentColor" stroke-width="1"/>
      <path d="M40 44 L56 60 L40 76 L24 60 Z" fill="none" stroke="currentColor" stroke-width="1"/>
      <!-- Chevron bands -->
      <path d="M0 40 L20 20 L40 40 L60 20 L80 40" fill="none" stroke="currentColor" stroke-width="0.75" opacity="0.6"/>
      <path d="M0 40 L20 60 L40 40 L60 60 L80 40" fill="none" stroke="currentColor" stroke-width="0.75" opacity="0.6"/>
      <!-- Corner triangles -->
      <path d="M4 4 L16 4 L4 16 Z" fill="currentColor" opacity="0.15"/>
      <path d="M76 4 L64 4 L76 16 Z" fill="currentColor" opacity="0.15"/>
      <path d="M4 76 L16 76 L4 64 Z" fill="currentColor" opacity="0.15"/>
      <path d="M76 76 L64 76 L76 64 Z" fill="currentColor" opacity="0.15"/>
      <!-- Center cross -->
      <rect x="37" y="37" width="6" height="6" fill="currentColor" opacity="0.2" transform="rotate(45 40 40)"/>
    </pattern>
  </defs>
  <rect width="80" height="80" fill="url(#african-geo)"/>
</svg>
